HIERARCHY
ROOT hip
{
  OFFSET 0 0 0
  CHANNELS 6 Xposition Yposition Zposition Zrotation Yrotation Xrotation
  JOINT abdomen
  {
    OFFSET 0 20.6881 -0.73152
    CHANNELS 3 Zrotation Xrotation Yrotation
    JOINT chest
    {
      OFFSET 0 11.7043 -0.48768
      CHANNELS 3 Zrotation Xrotation Yrotation
      JOINT neck
      {
        OFFSET 0 22.1894 -2.19456
        CHANNELS 3 Zrotation Xrotation Yrotation
        JOINT head
        {
          OFFSET -0.24384 7.07133 1.2192
          CHANNELS 3 Zrotation Xrotation Yrotation
          JOINT leftEye
          {
            OFFSET 4.14528 8.04674 8.04672
            CHANNELS 3 Zrotation Xrotation Yrotation
            End Site
            {
              OFFSET 1 0 0
            }
          }
          JOINT rightEye
          {
            OFFSET -3.6576 8.04674 8.04672
            CHANNELS 3 Zrotation Xrotation Yrotation
            End Site
            {
              OFFSET 1 0 0
            }
          }
        }
      }
      JOINT rCollar
      {
        OFFSET -2.68224 19.2634 -4.8768
        CHANNELS 3 Zrotation Xrotation Yrotation
        JOINT rShldr
        {
          OFFSET -8.77824 -1.95073 1.46304
          CHANNELS 3 Zrotation Xrotation Yrotation
          JOINT rForeArm
          {
            OFFSET -28.1742 -1.7115 0.48768
            CHANNELS 3 Zrotation Xrotation Yrotation
            JOINT rHand
            {
              OFFSET -22.5879 0.773209 7.07136
              CHANNELS 3 Zrotation Xrotation Yrotation
              JOINT rThumb1
              {
                OFFSET -1.2192 -0.487915 3.41376
                CHANNELS 3 Zrotation Xrotation Yrotation
                JOINT rThumb2
                {
                  OFFSET -3.37035 -0.52449 3.41376
                  CHANNELS 3 Zrotation Xrotation Yrotation
                  End Site
                  {
                    OFFSET -1.78271 -1.18214 1.43049
                  }
                }
              }
              JOINT rIndex1
              {
                OFFSET -7.75947 0.938293 5.60832
                CHANNELS 3 Zrotation Xrotation Yrotation
                JOINT rIndex2
                {
                  OFFSET -2.54057 -0.884171 1.56538
                  CHANNELS 3 Zrotation Xrotation Yrotation
                  End Site
                  {
                    OFFSET -1.62519 -0.234802 1.16502
                  }
                }
              }
              JOINT rMid1
              {
                OFFSET -8.24714 1.18213 3.41376
                CHANNELS 3 Zrotation Xrotation Yrotation
                JOINT rMid2
                {
                  OFFSET -3.10165 -0.590103 1.0647
                  CHANNELS 3 Zrotation Xrotation Yrotation
                  End Site
                  {
                    OFFSET -2.48547 -0.328903 0.83742
                  }
                }
              }
              JOINT rRing1
              {
                OFFSET -8.82822 0.546677 1.51678
                CHANNELS 3 Zrotation Xrotation Yrotation
                JOINT rRing2
                {
                  OFFSET -2.60934 -0.819778 -0.0198488
                  CHANNELS 3 Zrotation Xrotation Yrotation
                  End Site
                  {
                    OFFSET -2.33842 -0.294052 0.168128
                  }
                }
              }
              JOINT rPinky1
              {
                OFFSET -8.27202 -0.0477905 -0.4584
                CHANNELS 3 Zrotation Xrotation Yrotation
                JOINT rPinky2
                {
                  OFFSET -1.82734 -0.647385 -0.700984
                  CHANNELS 3 Zrotation Xrotation Yrotation
                  End Site
                  {
                    OFFSET -1.69225 -0.51767 -0.607171
                  }
                }
              }
            }
          }
        }
      }
      JOINT lCollar
      {
        OFFSET 2.68224 19.2634 -4.8768
        CHANNELS 3 Zrotation Xrotation Yrotation
        JOINT lShldr
        {
          OFFSET 8.77824 -1.95073 1.46304
          CHANNELS 3 Zrotation Xrotation Yrotation
          JOINT lForeArm
          {
            OFFSET 28.1742 -1.7115 0.48768
            CHANNELS 3 Zrotation Xrotation Yrotation
            JOINT lHand
            {
              OFFSET 22.5879 0.773209 7.07136
              CHANNELS 3 Zrotation Xrotation Yrotation
              JOINT lThumb1
              {
                OFFSET 1.2192 -0.487915 3.41376
                CHANNELS 3 Zrotation Xrotation Yrotation
                JOINT lThumb2
                {
                  OFFSET 3.37035 -0.52449 3.41376
                  CHANNELS 3 Zrotation Xrotation Yrotation
                  End Site
                  {
                    OFFSET 1.78271 -1.18214 1.43049
                  }
                }
              }
              JOINT lIndex1
              {
                OFFSET 7.75947 0.938293 5.60832
                CHANNELS 3 Zrotation Xrotation Yrotation
                JOINT lIndex2
                {
                  OFFSET 2.54057 -0.884171 1.56538
                  CHANNELS 3 Zrotation Xrotation Yrotation
                  End Site
                  {
                    OFFSET 1.62519 -0.234802 1.16502
                  }
                }
              }
              JOINT lMid1
              {
                OFFSET 8.24714 1.18213 3.41376
                CHANNELS 3 Zrotation Xrotation Yrotation
                JOINT lMid2
                {
                  OFFSET 3.10165 -0.590103 1.0647
                  CHANNELS 3 Zrotation Xrotation Yrotation
                  End Site
                  {
                    OFFSET 2.48547 -0.328903 0.83742
                  }
                }
              }
              JOINT lRing1
              {
                OFFSET 8.82822 0.546677 1.51678
                CHANNELS 3 Zrotation Xrotation Yrotation
                JOINT lRing2
                {
                  OFFSET 2.60934 -0.819778 -0.0198488
                  CHANNELS 3 Zrotation Xrotation Yrotation
                  End Site
                  {
                    OFFSET 2.33842 -0.294052 0.168128
                  }
                }
              }
              JOINT lPinky1
              {
                OFFSET 8.27202 -0.0477905 -0.4584
                CHANNELS 3 Zrotation Xrotation Yrotation
                JOINT lPinky2
                {
                  OFFSET 1.82734 -0.647385 -0.700984
                  CHANNELS 3 Zrotation Xrotation Yrotation
                  End Site
                  {
                    OFFSET 1.69225 -0.51767 -0.607171
                  }
                }
              }
            }
          }
        }
      }
    }
  }
  JOINT rButtock
  {
    OFFSET -8.77824 4.35084 1.2192
    CHANNELS 3 Zrotation Xrotation Yrotation
    JOINT rThigh
    {
      OFFSET 0 -1.70687 -2.19456
      CHANNELS 3 Zrotation Xrotation Yrotation
      JOINT rShin
      {
        OFFSET 0 -36.8199 0.73152
        CHANNELS 3 Zrotation Xrotation Yrotation
        JOINT rFoot
        {
          OFFSET 0.73152 -45.1104 -5.12064
          CHANNELS 3 Zrotation Xrotation Yrotation
          End Site
          {
            OFFSET -1.1221 -3.69964 12.103
          }
        }
      }
    }
  }
  JOINT lButtock
  {
    OFFSET 8.77824 4.35084 1.2192
    CHANNELS 3 Zrotation Xrotation Yrotation
    JOINT lThigh
    {
      OFFSET 0 -1.70687 -2.19456
      CHANNELS 3 Zrotation Xrotation Yrotation
      JOINT lShin
      {
        OFFSET 0 -36.8199 0.73152
        CHANNELS 3 Zrotation Xrotation Yrotation
        JOINT lFoot
        {
          OFFSET -0.73152 -45.1104 -5.12064
          CHANNELS 3 Zrotation Xrotation Yrotation
          End Site
          {
            OFFSET 1.1221 -3.69964 12.103
          }
        }
      }
    }
  }
}
MOTION
Frames:	4
Frame Time:	0.03333
0.032119572162628174 25.357097625732422 0.03982056304812431 -25.505256950855255 -3.549516722559929 5.843924582004547 0.08440308272838593 14.68436747789383 7.037010043859482 0.893486738204956 -4.440016821026802 0.9953741356730461 -7.973256558179855 11.2784743309021 -3.1655095517635345 -0.357217937707901 -17.870403975248337 -5.483534932136536 -7.807848751544952 -4.14241399616003 -0.4536973312497139 1.935567855834961 2.2003746405243874 1.1286051571369171 1.312905102968216 -3.350316099822521 -0.8474097400903702 35.849043130874634 27.69924759864807 9.139556139707565 -13.203895390033722 -23.989704251289368 46.646854877471924 -4.638703465461731 -3.277788832783699 4.4768888130784035 0.5242783203721046 5.049873366951942 -0.07251754403114319 0.3963741660118103 0.009529218077659607 3.228203170001507 -4.999142065644264 -4.132620245218277 -0.07606912404298782 0.6231792457401752 4.892756938934326 2.6426658779382706 3.2423897087574005 6.107885465025902 -0.11300280690193176 -3.722185268998146 1.8525943905115128 -5.196936205029488 -1.504451036453247 3.4132209420204163 -1.8173106014728546 4.12947803735733 -5.03118172287941 -0.017582885921001434 -4.206929504871368 3.1347231566905975 -1.601637527346611 2.820511758327484 -2.3739735782146454 6.4680518209934235 -0.8298379182815552 -1.352018415927887 -4.004672504961491 -47.464300990104675 24.422044157981873 -20.346050709486008 15.935777574777603 -27.485496997833252 -52.83679783344269 -2.9187490046024323 -3.4570281207561493 -0.8815757185220718 3.283638060092926 -5.10847058147192 -1.8471300601959229 -1.5395266190171242 -2.730473354458809 0.2445678412914276 -2.459663450717926 -1.1116824299097061 2.856978066265583 -5.410965085029602 8.680154085159302 -2.4637380614876747 -4.175096042454243 -1.8586141057312489 0.6691715866327286 -3.734104670584202 6.21115118265152 3.012935109436512 -2.16013815253973 -5.323224663734436 4.455814361572266 -11.390101164579391 -0.9048965200781822 2.158075198531151 -8.175213485956192 -3.8224060088396072 -3.5850080475211143 -3.0951230227947235 0.026114657521247864 -1.3765760511159897 2.54883399233222 0.2975112944841385 1.5627629309892654 -15.433006882667542 -30.575774610042572 -31.82763397693634 -10.406705439090729 45.76751947402954 14.25399363040924 -3.056202158331871 -11.847844272851944 -7.5588177144527435 0.2377535216510296 0.37539929151535034 6.263778805732727 29.412581026554108 -32.64395356178284 17.56068527698517 16.2460595369339 49.58881437778473 -17.128453999757767 1.450242754071951 -6.880277842283249 8.771215751767159
0.07235833257436752 61.12580871582031 0.1545201949775219 -39.92212504148483 -3.880007788538933 21.626627147197723 -0.6258203834295273 17.33007162809372 7.900775223970413 -7.061843276023865 -4.817429110407829 4.745542220771313 -7.152290046215057 16.438599228858948 -0.40619775652885437 -3.044496327638626 -20.152997374534607 7.744776606559753 1.8915598466992378 -3.9459220692515373 -2.267640419304371 -0.48074305057525635 7.4874334037303925 -2.9512788355350494 0.8917795121669769 -3.368889056146145 -0.2343318611383438 52.077582478523254 36.326900124549866 11.914945095777512 -11.812011301517487 -25.11352837085724 61.058621406555176 0.6112580001354218 -2.127683088183403 14.03553307056427 -4.0670305117964745 3.4088201075792313 3.2267725467681885 -7.850286662578583 2.8573016077280045 9.237619042396545 -9.88580234348774 0.5756355822086334 2.067992202937603 0.49159811809659004 4.283042550086975 6.002843454480171 0.9256209433078766 6.953839436173439 0.3852805495262146 -8.899350240826607 -3.138149008154869 -4.881564751267433 3.5744619369506836 1.7807534337043762 -3.31418439745903 3.306686282157898 -5.916254371404648 5.351539738476276 5.243144631385803 -1.9447195529937744 0.6974608451128006 0.02118341624736786 -0.44065341353416443 6.700309664011002 -2.492721676826477 -3.053399920463562 -2.834196723997593 -50.90473294258118 30.969777703285217 -31.16769790649414 18.324897587299347 -37.32581377029419 -74.60671663284302 -8.530308455228806 -13.064260929822922 -1.790938451886177 3.5233336687088013 -10.500775873661041 0.12410983443260193 -6.036743223667145 -3.557387664914131 0.7168136537075043 2.7050989866256714 -2.096293196082115 -0.17144512385129929 -2.428657114505768 7.544571161270142 -6.2238809466362 0.304836742579937 -2.075937408953905 -2.100713476538658 -7.714757323265076 3.362087644636631 -2.5763318315148354 -1.2862985115498304 -2.7385810017585754 -1.2305974960327148 -15.900090783834457 -7.173093259334564 8.94809402525425 -16.36563777923584 -7.20362015068531 3.6020977422595024 -8.089018017053604 -5.485862419009209 -1.5936928242444992 6.783631816506386 -0.8520513027906418 1.7191947251558304 -14.488381147384644 -44.8883718252182 -26.087264120578766 -27.755909264087677 67.06121742725372 15.550122857093811 -8.34964893758297 -15.836455374956131 -13.840266913175583 1.315250527113676 2.8128594160079956 4.760127402842045 33.20657640695572 -41.28779858350754 42.66473472118378 15.85628092288971 62.58194983005524 -16.796328127384186 -0.4532606340944767 -9.407315701246262 21.627708077430725
0.08193305041640997 58.207313537597656 0.04272986575961113 -41.50523990392685 5.11297769844532 -5.558408796787262 -0.7006862014532089 18.096797168254852 8.524069637060165 -9.08295214176178 -7.210340425372124 3.1571004912257195 -5.233480297029018 15.37511944770813 0.5605669319629669 -1.2129981815814972 -21.2735652923584 12.175013422966003 -0.24601992219686508 -3.4239695593714714 -1.6648568585515022 -1.4457160234451294 4.845197685062885 -2.1532465517520905 -1.9524885714054108 -1.569710187613964 -2.33381487429142 61.19052708148956 41.9164252281189 6.048999577760696 -13.772394955158234 -29.005263447761536 66.73167586326599 0.03095671534538269 -5.1461271196603775 13.229974508285522 -2.852697931230068 2.4654094129800797 4.217551052570343 -5.497364401817322 5.396119728684425 8.694058656692505 -9.359595850110054 -1.5569405257701874 0.910458080470562 -0.47249509021639824 0.716933012008667 8.360784128308296 3.5665561258792877 6.800202503800392 -1.2278321385383606 -7.442224100232124 -4.682894870638847 -2.5566097162663937 1.9668370485305786 -2.144485116004944 -6.272451728582382 3.1306207180023193 -3.7453602254390717 1.4901431277394295 2.9040706157684326 -1.2515991926193237 4.320599511265755 0.5875600129365921 0.08396521210670471 6.999284774065018 -4.481566250324249 -5.477591156959534 -4.052842296659946 -58.51260960102081 26.774974465370178 -28.218040466308594 19.27813857793808 -36.47913694381714 -70.44088125228882 -8.229509443044662 -7.093577831983566 -3.7421462684869766 4.3326205015182495 -12.674931585788727 0.4498346149921417 -4.904722608625889 -2.3342493921518326 2.5183354318141937 1.4495837688446045 -4.079175218939781 1.2610449269413948 -3.866697996854782 5.784827470779419 -4.930139221251011 0.41525792330503464 -2.4655148573219776 -1.966656669974327 -7.086203098297119 3.2579535618424416 -1.3821426406502724 -3.3164143189787865 -0.3719499707221985 -0.9674513339996338 -12.818318456411362 -4.9595194682478905 7.131849601864815 -12.655013501644135 -9.084256365895271 2.0930400118231773 -12.059374004602432 -5.1283132284879684 -2.499673292040825 4.859238043427467 -1.3124149292707443 3.104158714413643 -23.635025024414062 -41.972408294677734 -30.771629512310028 -37.44570046663284 76.05020642280579 33.25166434049606 -8.929386958479881 -19.82253983616829 -19.54600140452385 -0.848530400544405 0.355108380317688 5.942906141281128 54.64426875114441 -41.78457051515579 60.038926005363464 34.94105905294418 67.69606411457062 -40.24558335542679 -0.5471755005419254 -12.470237463712692 17.23380982875824
0.08924002759158611 58.346290588378906 -0.08341101184487343 -43.420251309871674 5.376960709691048 -5.586829483509064 -0.7324542850255966 18.574874103069305 8.197588473558426 -8.9460951089859 -7.598466798663139 2.13149081915617 -5.444846414029598 13.971444368362427 0.9594543278217316 0.002418011426925659 -20.671103596687317 11.418823599815369 -0.6758063659071922 -3.7992696091532707 -0.5696840956807137 -2.03795850276947 3.387164957821369 -2.3341669142246246 -2.555304318666458 -0.943753682076931 -3.00347663462162 62.517845034599304 42.49732732772827 5.1722608879208565 -15.09671688079834 -30.202741026878357 67.79557943344116 -0.45478060841560364 -5.851679518818855 12.518743872642517 -2.212497554719448 1.8866664916276932 3.9837053418159485 -3.739425837993622 6.263497844338417 7.868641018867493 -9.420921877026558 -2.3045633733272552 0.14117907732725143 -1.1134947650134563 -0.13406217098236084 8.989252522587776 4.61345449090004 6.83821476995945 -1.7399677634239197 -6.322031691670418 -4.765632972121239 -1.9008096121251583 1.0878556966781616 -2.7855196595191956 -8.137509673833847 3.420765995979309 -2.0014630258083344 -0.3587410971522331 1.3168091420084238 -0.5456632375717163 5.208453610539436 0.953008309006691 -0.0496731698513031 6.883756667375565 -4.996882975101471 -6.473516821861267 -5.127463974058628 -59.63062405586243 26.613956093788147 -28.04831027984619 20.474307239055634 -36.6967499256134 -69.77482438087463 -6.769845932722092 -7.549987882375717 -2.5301123410463333 5.208324193954468 -13.843999207019806 -0.6300951540470123 -5.023372806608677 -1.0815022140741348 2.9680560529232025 0.39585113525390625 -4.723103865981102 2.020051069557667 -4.709520488977432 4.73526868969202 -4.576312936842442 0.6215305253863335 -2.751773614436388 -2.3366298526525497 -7.2885167598724365 3.026253618299961 -0.5153411999344826 -4.9319785460829735 0.47777652740478516 -1.4969247579574585 -11.691468805074692 -4.601503573358059 5.344849303364754 -10.769297182559967 -10.123124197125435 1.085130237042904 -12.829865366220474 -5.853051468729973 -1.814175769686699 3.6127618700265884 -1.603359505534172 3.0540255457162857 -23.597978353500366 -42.165870666503906 -29.858804047107697 -36.51368647813797 77.64058470726013 34.75371479988098 -9.031917080283165 -18.62474575638771 -20.090425461530685 -0.6689726002514362 -0.6564384698867798 6.63648247718811 57.48273253440857 -40.99814683198929 60.25943577289581 36.21650844812393 66.84423208236694 -41.71412229537964 0.783157255500555 -12.297133058309555 15.505276322364807
